<?xml version="1.0" encoding="UTF-8"?>
<!-- Generator: Adobe Illustrator 15.0.2, SVG Export Plug-In . SVG Version: 6.00 Build 0)  -->
<!DOCTYPE svg PUBLIC "-//W3C//DTD SVG 1.1//EN" "http://www.w3.org/Graphics/SVG/1.1/DTD/svg11.dtd">
<svg version="1.1" id="Layer_1" xmlns="http://www.w3.org/2000/svg" xmlns:xlink="http://www.w3.org/1999/xlink" x="0px" y="0px" width="113.391px" height="113.391px" viewBox="-0.329 0 512 355.079" enable-background="new -0.329 0 512 355.079" xml:space="preserve">
<g>
	<path d="M334.128,355.079c-7.065,0-14.149-2.69-19.537-8.084c-10.787-10.788-10.787-28.27,0-39.051l130.408-130.401L314.597,47.146   c-10.787-10.787-10.787-28.263,0-39.056c10.788-10.79,28.264-10.784,39.051,0L503.58,158.017c5.19,5.178,8.091,12.201,8.091,19.531   c0,7.323-2.912,14.347-8.091,19.525L353.648,346.988C348.266,352.377,341.189,355.079,334.128,355.079z"/>
	<path d="M177.22,355.079c-7.066,0-14.132-2.69-19.525-8.084L7.756,197.067c-5.172-5.178-8.084-12.201-8.084-19.524   c0-7.324,2.913-14.354,8.079-19.531L157.695,8.09c10.775-10.784,28.263-10.784,39.038,0c10.8,10.788,10.8,28.263,0,39.056   L66.337,177.543l130.401,130.39c10.8,10.787,10.8,28.269,0,39.056C191.351,352.377,184.285,355.079,177.22,355.079z"/>
</g>
</svg>
