<?xml version="1.0" encoding="utf-8"?>
<!-- Generator: Adobe Illustrator 15.0.0, SVG Export Plug-In . SVG Version: 6.00 Build 0)  -->
<!DOCTYPE svg PUBLIC "-//W3C//DTD SVG 1.1//EN" "http://www.w3.org/Graphics/SVG/1.1/DTD/svg11.dtd">
<svg version="1.1" id="Layer_1" xmlns="http://www.w3.org/2000/svg" xmlns:xlink="http://www.w3.org/1999/xlink" x="0px" y="0px"
	 width="113.391px" height="113.391px" viewBox="0 0 113.391 113.391" enable-background="new 0 0 113.391 113.391"
	 xml:space="preserve">
<path d="M15.684,32.884C7.349,44.864,8.387,60.45,14.754,73.18c0.151,0.305,0.311,0.604,0.467,0.904
	c0.1,0.19,0.193,0.387,0.298,0.573c0.059,0.112,0.125,0.223,0.186,0.33c0.108,0.203,0.22,0.396,0.332,0.594
	c0.198,0.35,0.4,0.695,0.608,1.042c0.114,0.19,0.228,0.381,0.347,0.571c0.229,0.371,0.465,0.737,0.706,1.104
	c0.1,0.156,0.198,0.313,0.3,0.465c0.332,0.494,0.671,0.988,1.021,1.475c0.009,0.013,0.019,0.026,0.028,0.038
	c0.056,0.078,0.116,0.154,0.173,0.231c0.303,0.419,0.614,0.83,0.931,1.238c0.116,0.148,0.232,0.298,0.351,0.446
	c0.282,0.354,0.569,0.706,0.86,1.058c0.109,0.131,0.219,0.265,0.329,0.394c0.392,0.461,0.791,0.92,1.199,1.369
	c0.007,0.008,0.017,0.018,0.023,0.024c0.018,0.021,0.032,0.031,0.046,0.051c0.398,0.436,0.807,0.859,1.218,1.284
	c0.129,0.132,0.26,0.265,0.392,0.395c0.32,0.321,0.645,0.639,0.973,0.954c0.133,0.127,0.266,0.257,0.398,0.378
	c0.438,0.413,0.881,0.817,1.333,1.214c0.008,0.007,0.014,0.013,0.021,0.017c0.077,0.068,0.156,0.133,0.232,0.198
	c0.397,0.345,0.803,0.687,1.211,1.021c0.166,0.136,0.334,0.268,0.501,0.4c0.333,0.267,0.67,0.53,1.01,0.789
	c0.179,0.137,0.359,0.273,0.54,0.41c0.375,0.274,0.752,0.547,1.133,0.813c0.14,0.102,0.273,0.198,0.412,0.293
	c0.039,0.027,0.075,0.056,0.114,0.081c0.361,0.249,0.73,0.488,1.1,0.729c0.159,0.104,0.316,0.215,0.477,0.316
	c0.565,0.358,1.141,0.714,1.722,1.056c0.157,0.091,0.317,0.179,0.477,0.269c0.427,0.246,0.856,0.488,1.292,0.726
	c0.235,0.127,0.478,0.247,0.716,0.368c0.308,0.161,0.611,0.324,0.925,0.48c0.071,0.035,0.145,0.069,0.214,0.104
	c0.126,0.062,0.253,0.119,0.378,0.184c0.484,0.23,0.973,0.459,1.466,0.679c0.105,0.047,0.206,0.093,0.311,0.139
	c0.564,0.247,1.135,0.484,1.71,0.712c0.138,0.057,0.276,0.108,0.417,0.163c0.532,0.205,1.072,0.407,1.614,0.599
	c0.067,0.023,0.134,0.047,0.202,0.07c0.595,0.207,1.195,0.399,1.8,0.589c0.144,0.042,0.289,0.088,0.435,0.13
	c0.615,0.186,1.223,0.407,1.858,0.523c40.31,7.352,52.019-24.224,52.019-24.224c-9.834,12.812-27.29,16.191-43.828,12.429
	c-0.627-0.142-1.234-0.337-1.846-0.518c-0.155-0.046-0.308-0.093-0.46-0.141c-0.597-0.183-1.189-0.375-1.777-0.577
	c-0.081-0.029-0.162-0.06-0.244-0.089c-0.526-0.186-1.048-0.381-1.566-0.58c-0.146-0.06-0.293-0.114-0.439-0.174
	c-0.568-0.225-1.134-0.459-1.691-0.702c-0.115-0.05-0.226-0.102-0.339-0.149c-0.479-0.218-0.954-0.438-1.427-0.664
	c-0.137-0.065-0.272-0.13-0.413-0.198c-0.371-0.181-0.737-0.373-1.104-0.562c-0.245-0.129-0.494-0.251-0.737-0.387
	c-0.447-0.238-0.886-0.487-1.323-0.741c-0.147-0.083-0.298-0.163-0.446-0.249c-0.581-0.342-1.155-0.696-1.724-1.057
	c-0.156-0.1-0.31-0.207-0.465-0.31c-0.412-0.266-0.822-0.536-1.226-0.815c-0.134-0.09-0.264-0.188-0.396-0.276
	c-0.39-0.275-0.775-0.556-1.159-0.838c-0.174-0.129-0.345-0.261-0.514-0.39c-0.351-0.269-0.7-0.539-1.046-0.816
	c-0.156-0.124-0.313-0.249-0.466-0.374c-0.439-0.361-0.874-0.726-1.303-1.099c-0.046-0.039-0.095-0.078-0.144-0.12
	c-0.464-0.406-0.919-0.824-1.37-1.244c-0.131-0.125-0.258-0.246-0.386-0.371c-0.333-0.317-0.662-0.638-0.984-0.965
	c-0.129-0.13-0.259-0.257-0.386-0.386c-0.41-0.42-0.813-0.846-1.208-1.276c-0.02-0.021-0.04-0.041-0.06-0.063
	c-0.417-0.456-0.825-0.923-1.226-1.394c-0.107-0.13-0.213-0.254-0.32-0.381c-0.299-0.359-0.594-0.724-0.882-1.091
	c-0.107-0.131-0.216-0.267-0.322-0.401c-0.348-0.45-0.687-0.899-1.019-1.355c-9.182-12.524-12.48-29.8-5.142-43.987"/>
<path d="M41.557,22.791c-6.028,8.674-5.701,20.286-0.999,29.46c0.789,1.538,1.675,3.03,2.666,4.451
	c0.902,1.294,1.903,2.834,3.103,3.875c0.436,0.479,0.889,0.945,1.354,1.404c0.116,0.119,0.236,0.233,0.355,0.352
	c0.45,0.438,0.908,0.866,1.382,1.283c0.021,0.016,0.037,0.035,0.057,0.049c0.005,0.006,0.01,0.008,0.013,0.015
	c0.524,0.459,1.063,0.899,1.614,1.335c0.122,0.093,0.243,0.189,0.365,0.285c0.552,0.423,1.112,0.838,1.688,1.232
	c0.017,0.012,0.031,0.024,0.049,0.037c0.254,0.176,0.513,0.339,0.771,0.508c0.124,0.08,0.24,0.166,0.364,0.241
	c0.411,0.264,0.828,0.521,1.251,0.767c0.061,0.037,0.119,0.068,0.178,0.104c0.364,0.21,0.734,0.417,1.105,0.618
	c0.129,0.071,0.261,0.137,0.394,0.205c0.256,0.134,0.513,0.271,0.772,0.399c0.039,0.02,0.08,0.036,0.117,0.053
	c0.531,0.263,1.067,0.515,1.614,0.752c0.116,0.053,0.236,0.099,0.355,0.146c0.438,0.186,0.879,0.367,1.322,0.537
	c0.188,0.071,0.379,0.14,0.566,0.208c0.402,0.148,0.808,0.286,1.215,0.423c0.185,0.059,0.364,0.119,0.55,0.176
	c0.579,0.181,1.152,0.407,1.757,0.508c31.123,5.156,38.308-18.807,38.308-18.807c-6.478,9.328-19.021,13.779-32.404,10.305
	c-0.594-0.155-1.181-0.325-1.763-0.51c-0.179-0.054-0.354-0.112-0.529-0.171c-0.414-0.134-0.825-0.276-1.233-0.425
	c-0.187-0.068-0.373-0.137-0.557-0.207c-0.446-0.172-0.89-0.351-1.326-0.535c-0.12-0.051-0.24-0.098-0.357-0.151
	c-0.55-0.238-1.091-0.49-1.624-0.755c-0.273-0.134-0.544-0.274-0.813-0.414c-0.156-0.081-0.313-0.162-0.47-0.241
	c-0.348-0.188-0.691-0.384-1.03-0.581c-0.081-0.047-0.165-0.092-0.247-0.141c-0.421-0.246-0.836-0.5-1.247-0.762
	c-0.127-0.08-0.249-0.168-0.376-0.251c-0.271-0.176-0.542-0.354-0.809-0.534c-0.573-0.396-1.132-0.811-1.683-1.23
	c-0.127-0.101-0.254-0.198-0.378-0.299c-5.858-4.626-10.503-10.946-12.711-18.114c-2.313-7.435-1.814-15.779,2.194-22.552"/>
<path d="M63.318,15.25c-3.554,5.229-3.902,11.725-1.438,17.5c2.602,6.13,7.93,10.94,14.147,13.221
	c0.257,0.095,0.513,0.181,0.771,0.269c0.113,0.034,0.228,0.073,0.342,0.107c0.365,0.114,0.729,0.249,1.107,0.319
	c17.187,3.32,21.847-8.817,23.087-10.604c-4.083,5.879-10.943,7.29-19.363,5.247c-0.664-0.162-1.396-0.402-2.037-0.629
	c-0.822-0.293-1.633-0.627-2.418-1.006c-1.496-0.718-2.92-1.59-4.242-2.588c-7.533-5.716-12.213-16.621-7.297-25.502"/>
</svg>
